<svg xmlns="http://www.w3.org/2000/svg" width="1536" height="960" viewBox="0 0 1536 960"><rect width="1536" height="960" fill="#f7f1e4"/><style>text{font-family:Georgia;fill:#403a30}.small{font:18px sans-serif}</style><text x="48" y="45" font-size="28">012 · One specimen, two embeddings, three rewrite states</text><text x="51" y="80" font-size="23">Working plane · Before</text><line x1="193" y1="258" x2="130" y2="161.4" stroke="#ad8658" stroke-width="9.200000000000001" stroke-linecap="round"/><line x1="256" y1="337.8" x2="382" y2="241.20000000000002" stroke="#ad8658" stroke-width="9.200000000000001" stroke-linecap="round"/><line x1="193" y1="258" x2="256" y2="161.4" stroke="#6c8b68" stroke-width="9.200000000000001" stroke-linecap="round"/><line x1="256" y1="337.8" x2="193" y2="258" stroke="#ad8658" stroke-width="12.8" stroke-linecap="round"/><line x1="256" y1="405" x2="256" y2="337.8" stroke="#ad8658" stroke-width="14.399999999999999" stroke-linecap="round"/><line x1="130" y1="161.4" x2="98.5" y2="106.80000000000001" stroke="#ad8658" stroke-width="6.800000000000001" stroke-linecap="round"/><line x1="130" y1="161.4" x2="161.5" y2="106.80000000000001" stroke="#ad8658" stroke-width="6.800000000000001" stroke-linecap="round"/><circle cx="193" cy="258" r="10" fill="#fff9e9" stroke="#6f6755"/><text x="206" y="249" font-size="19">q +</text><circle cx="256" cy="337.8" r="10" fill="#fff9e9" stroke="#6f6755"/><text x="269" y="328.8" font-size="19">p +</text><circle cx="130" cy="161.4" r="10" fill="#fff9e9" stroke="#6f6755"/><text x="143" y="152.4" font-size="19">A +</text><circle cx="98.5" cy="106.80000000000001" r="10" fill="#fff9e9" stroke="#6f6755"/><text x="111.5" y="97.80000000000001" font-size="19">x</text><circle cx="161.5" cy="106.80000000000001" r="10" fill="#fff9e9" stroke="#6f6755"/><text x="174.5" y="97.80000000000001" font-size="19">y</text><circle cx="256" cy="161.4" r="10" fill="#fff9e9" stroke="#6f6755"/><text x="269" y="152.4" font-size="19">B</text><circle cx="382" cy="241.20000000000002" r="10" fill="#fff9e9" stroke="#6f6755"/><text x="395" y="232.20000000000002" font-size="19">C</text><text x="51" y="436" class="small">p(q(A,B),C)</text><text x="561" y="80" font-size="23">Working plane · Transfer</text><line x1="734.5" y1="297.9" x2="640" y2="201.3" stroke="#ad8658" stroke-width="9.200000000000001" stroke-linecap="round"/><line x1="797.5" y1="297.9" x2="892" y2="201.3" stroke="#ad8658" stroke-width="9.200000000000001" stroke-linecap="round"/><line x1="766" y1="297.9" x2="766" y2="161.4" stroke="#6c8b68" stroke-width="9.200000000000001" stroke-linecap="round"/><line x1="797.5" y1="297.9" x2="734.5" y2="297.9" stroke="#ad8658" stroke-width="12.8" stroke-linecap="round"/><line x1="766" y1="405" x2="766" y2="297.9" stroke="#ad8658" stroke-width="14.399999999999999" stroke-linecap="round"/><line x1="640" y1="201.3" x2="608.5" y2="146.70000000000005" stroke="#ad8658" stroke-width="6.800000000000001" stroke-linecap="round"/><line x1="640" y1="201.3" x2="671.5" y2="146.70000000000005" stroke="#ad8658" stroke-width="6.800000000000001" stroke-linecap="round"/><circle cx="734.5" cy="297.9" r="10" fill="#fff9e9" stroke="#6f6755"/><text x="747.5" y="288.9" font-size="19">q +</text><circle cx="797.5" cy="297.9" r="10" fill="#fff9e9" stroke="#6f6755"/><text x="810.5" y="288.9" font-size="19">p +</text><circle cx="640" cy="201.3" r="10" fill="#fff9e9" stroke="#6f6755"/><text x="653" y="192.3" font-size="19">A +</text><circle cx="608.5" cy="146.70000000000005" r="10" fill="#fff9e9" stroke="#6f6755"/><text x="621.5" y="137.70000000000005" font-size="19">x</text><circle cx="671.5" cy="146.70000000000005" r="10" fill="#fff9e9" stroke="#6f6755"/><text x="684.5" y="137.70000000000005" font-size="19">y</text><circle cx="766" cy="161.4" r="10" fill="#fff9e9" stroke="#6f6755"/><text x="779" y="152.4" font-size="19">B</text><circle cx="892" cy="201.3" r="10" fill="#fff9e9" stroke="#6f6755"/><text x="905" y="192.3" font-size="19">C</text><text x="561" y="436" class="small">B attaches along the p–q member</text><text x="1071" y="80" font-size="23">Working plane · After</text><line x1="1276" y1="337.8" x2="1150" y2="241.20000000000002" stroke="#ad8658" stroke-width="9.200000000000001" stroke-linecap="round"/><line x1="1339" y1="258" x2="1402" y2="161.4" stroke="#ad8658" stroke-width="9.200000000000001" stroke-linecap="round"/><line x1="1339" y1="258" x2="1276" y2="161.4" stroke="#6c8b68" stroke-width="9.200000000000001" stroke-linecap="round"/><line x1="1339" y1="258" x2="1276" y2="337.8" stroke="#ad8658" stroke-width="12.8" stroke-linecap="round"/><line x1="1276" y1="405" x2="1276" y2="337.8" stroke="#ad8658" stroke-width="14.399999999999999" stroke-linecap="round"/><line x1="1150" y1="241.20000000000002" x2="1118.5" y2="186.6" stroke="#ad8658" stroke-width="6.800000000000001" stroke-linecap="round"/><line x1="1150" y1="241.20000000000002" x2="1181.5" y2="186.6" stroke="#ad8658" stroke-width="6.800000000000001" stroke-linecap="round"/><circle cx="1276" cy="337.8" r="10" fill="#fff9e9" stroke="#6f6755"/><text x="1289" y="328.8" font-size="19">q +</text><circle cx="1339" cy="258" r="10" fill="#fff9e9" stroke="#6f6755"/><text x="1352" y="249" font-size="19">p +</text><circle cx="1150" cy="241.20000000000002" r="10" fill="#fff9e9" stroke="#6f6755"/><text x="1163" y="232.20000000000002" font-size="19">A +</text><circle cx="1118.5" cy="186.6" r="10" fill="#fff9e9" stroke="#6f6755"/><text x="1131.5" y="177.6" font-size="19">x</text><circle cx="1181.5" cy="186.6" r="10" fill="#fff9e9" stroke="#6f6755"/><text x="1194.5" y="177.6" font-size="19">y</text><circle cx="1276" cy="161.4" r="10" fill="#fff9e9" stroke="#6f6755"/><text x="1289" y="152.4" font-size="19">B</text><circle cx="1402" cy="161.4" r="10" fill="#fff9e9" stroke="#6f6755"/><text x="1415" y="152.4" font-size="19">C</text><text x="1071" y="436" class="small">q(A,p(B,C))</text><text x="51" y="520" font-size="23">Spatial · Before</text><line x1="176.2" y1="690.8" x2="157.3" y2="613.1" stroke="#ad8658" stroke-width="9.200000000000001" stroke-linecap="round"/><line x1="256" y1="777.8" x2="390.4" y2="684.8000000000001" stroke="#ad8658" stroke-width="9.200000000000001" stroke-linecap="round"/><line x1="176.2" y1="690.8" x2="226.6" y2="588.8" stroke="#6c8b68" stroke-width="9.200000000000001" stroke-linecap="round"/><line x1="256" y1="777.8" x2="176.2" y2="690.8" stroke="#ad8658" stroke-width="12.8" stroke-linecap="round"/><line x1="256" y1="845" x2="256" y2="777.8" stroke="#ad8658" stroke-width="14.399999999999999" stroke-linecap="round"/><line x1="157.3" y1="613.1" x2="135.25" y2="562.55" stroke="#ad8658" stroke-width="6.800000000000001" stroke-linecap="round"/><line x1="157.3" y1="613.1" x2="179.35" y2="554.4499999999999" stroke="#ad8658" stroke-width="6.800000000000001" stroke-linecap="round"/><circle cx="176.2" cy="690.8" r="10" fill="#fff9e9" stroke="#6f6755"/><text x="189.2" y="681.8" font-size="19">q +</text><circle cx="256" cy="777.8" r="10" fill="#fff9e9" stroke="#6f6755"/><text x="269" y="768.8" font-size="19">p +</text><circle cx="157.3" cy="613.1" r="10" fill="#fff9e9" stroke="#6f6755"/><text x="170.3" y="604.1" font-size="19">A +</text><circle cx="135.25" cy="562.55" r="10" fill="#fff9e9" stroke="#6f6755"/><text x="148.25" y="553.55" font-size="19">x</text><circle cx="179.35" cy="554.4499999999999" r="10" fill="#fff9e9" stroke="#6f6755"/><text x="192.35" y="545.4499999999999" font-size="19">y</text><circle cx="226.6" cy="588.8" r="10" fill="#fff9e9" stroke="#6f6755"/><text x="239.6" y="579.8" font-size="19">B</text><circle cx="390.4" cy="684.8000000000001" r="10" fill="#fff9e9" stroke="#6f6755"/><text x="403.4" y="675.8000000000001" font-size="19">C</text><text x="51" y="876" class="small">p(q(A,B),C)</text><text x="561" y="520" font-size="23">Spatial · Transfer</text><line x1="726.1" y1="734.3" x2="667.3" y2="653" stroke="#ad8658" stroke-width="9.200000000000001" stroke-linecap="round"/><line x1="789.1" y1="734.3" x2="900.4" y2="644.9" stroke="#ad8658" stroke-width="9.200000000000001" stroke-linecap="round"/><line x1="757.6" y1="734.3" x2="736.6" y2="588.8" stroke="#6c8b68" stroke-width="9.200000000000001" stroke-linecap="round"/><line x1="789.1" y1="734.3" x2="726.1" y2="734.3" stroke="#ad8658" stroke-width="12.8" stroke-linecap="round"/><line x1="766" y1="845" x2="757.6" y2="734.3" stroke="#ad8658" stroke-width="14.399999999999999" stroke-linecap="round"/><line x1="667.3" y1="653" x2="645.25" y2="602.45" stroke="#ad8658" stroke-width="6.800000000000001" stroke-linecap="round"/><line x1="667.3" y1="653" x2="689.35" y2="594.35" stroke="#ad8658" stroke-width="6.800000000000001" stroke-linecap="round"/><circle cx="726.1" cy="734.3" r="10" fill="#fff9e9" stroke="#6f6755"/><text x="739.1" y="725.3" font-size="19">q +</text><circle cx="789.1" cy="734.3" r="10" fill="#fff9e9" stroke="#6f6755"/><text x="802.1" y="725.3" font-size="19">p +</text><circle cx="667.3" cy="653" r="10" fill="#fff9e9" stroke="#6f6755"/><text x="680.3" y="644" font-size="19">A +</text><circle cx="645.25" cy="602.45" r="10" fill="#fff9e9" stroke="#6f6755"/><text x="658.25" y="593.45" font-size="19">x</text><circle cx="689.35" cy="594.35" r="10" fill="#fff9e9" stroke="#6f6755"/><text x="702.35" y="585.35" font-size="19">y</text><circle cx="736.6" cy="588.8" r="10" fill="#fff9e9" stroke="#6f6755"/><text x="749.6" y="579.8" font-size="19">B</text><circle cx="900.4" cy="644.9" r="10" fill="#fff9e9" stroke="#6f6755"/><text x="913.4" y="635.9" font-size="19">C</text><text x="561" y="876" class="small">B attaches along the p–q member</text><text x="1071" y="520" font-size="23">Spatial · After</text><line x1="1276" y1="777.8" x2="1177.3" y2="692.9000000000001" stroke="#ad8658" stroke-width="9.200000000000001" stroke-linecap="round"/><line x1="1322.2" y1="690.8" x2="1410.4" y2="605" stroke="#ad8658" stroke-width="9.200000000000001" stroke-linecap="round"/><line x1="1322.2" y1="690.8" x2="1246.6" y2="588.8" stroke="#6c8b68" stroke-width="9.200000000000001" stroke-linecap="round"/><line x1="1322.2" y1="690.8" x2="1276" y2="777.8" stroke="#ad8658" stroke-width="12.8" stroke-linecap="round"/><line x1="1276" y1="845" x2="1276" y2="777.8" stroke="#ad8658" stroke-width="14.399999999999999" stroke-linecap="round"/><line x1="1177.3" y1="692.9000000000001" x2="1155.25" y2="642.35" stroke="#ad8658" stroke-width="6.800000000000001" stroke-linecap="round"/><line x1="1177.3" y1="692.9000000000001" x2="1199.35" y2="634.25" stroke="#ad8658" stroke-width="6.800000000000001" stroke-linecap="round"/><circle cx="1276" cy="777.8" r="10" fill="#fff9e9" stroke="#6f6755"/><text x="1289" y="768.8" font-size="19">q +</text><circle cx="1322.2" cy="690.8" r="10" fill="#fff9e9" stroke="#6f6755"/><text x="1335.2" y="681.8" font-size="19">p +</text><circle cx="1177.3" cy="692.9000000000001" r="10" fill="#fff9e9" stroke="#6f6755"/><text x="1190.3" y="683.9000000000001" font-size="19">A +</text><circle cx="1155.25" cy="642.35" r="10" fill="#fff9e9" stroke="#6f6755"/><text x="1168.25" y="633.35" font-size="19">x</text><circle cx="1199.35" cy="634.25" r="10" fill="#fff9e9" stroke="#6f6755"/><text x="1212.35" y="625.25" font-size="19">y</text><circle cx="1246.6" cy="588.8" r="10" fill="#fff9e9" stroke="#6f6755"/><text x="1259.6" y="579.8" font-size="19">B</text><circle cx="1410.4" cy="605" r="10" fill="#fff9e9" stroke="#6f6755"/><text x="1423.4" y="596" font-size="19">C</text><text x="1071" y="876" class="small">q(A,p(B,C))</text><text x="48" y="945" class="small">A = x + y stays intact. Spread changes geometry only. Midpoint is an animation state, not a new algebraic term.</text></svg>